<?xml version="1.0" encoding="utf-8"?>
<!-- Generator: Adobe Illustrator 21.0.0, SVG Export Plug-In . SVG Version: 6.00 Build 0)  -->
<svg version="1.1" id="Слой_1" xmlns="http://www.w3.org/2000/svg" xmlns:xlink="http://www.w3.org/1999/xlink" x="0px" y="0px"
	 viewBox="0 0 400 400" style="enable-background:new 0 0 400 400;" xml:space="preserve">
<style type="text/css">
	.st0{fill:#50B1DF;}
	.st1{fill:#FFFFFF;}
	.st2{fill:#D1E3EF;}
	.st3{fill:#B6CCDD;}
</style>
<g>
	<ellipse class="st0" cx="200" cy="200.5" rx="199.5" ry="200"/>
</g>
<path class="st1" d="M73.9,189.7l216.5-84.8c4.4-1.7,8.9,2.1,7.9,6.7l-38.3,184.7c-1,5-6.9,7.2-11,4.2L163,236.1
	c-0.2-0.2-0.3-0.5-0.1-0.7l85.3-88.4c0.4-0.4-0.1-1.1-0.6-0.8l-112.2,74.1c-0.1,0.1-0.3,0.1-0.4,0.1L74,198.2
	C70.1,196.7,70,191.2,73.9,189.7z"/>
<polygon class="st2" points="135.1,220.4 157,294.9 162.5,235.7 251.3,143.7 "/>
<polygon class="st3" points="157,294.9 193.2,258.6 162.5,235.7 "/>
</svg>
